<svg width="1600" height="1200" viewBox="0 0 1600 1200" fill="none" xmlns="http://www.w3.org/2000/svg" role="img" aria-labelledby="title desc">
  <title id="title">Estate Powerhouse residential solar package</title>
  <desc id="desc">Illustration of a large detached home with an expanded all-black array and high-capacity battery-backed solar installation.</desc>
  <defs>
    <linearGradient id="sky" x1="800" y1="0" x2="800" y2="1200" gradientUnits="userSpaceOnUse">
      <stop offset="0" stop-color="#E0E7FF"/>
      <stop offset="0.52" stop-color="#F8FAFC"/>
      <stop offset="1" stop-color="#DBEAFE"/>
    </linearGradient>
    <linearGradient id="ground" x1="800" y1="860" x2="800" y2="1200" gradientUnits="userSpaceOnUse">
      <stop offset="0" stop-color="#BFDBFE"/>
      <stop offset="1" stop-color="#93C5FD"/>
    </linearGradient>
    <linearGradient id="roof" x1="140" y1="360" x2="1080" y2="760" gradientUnits="userSpaceOnUse">
      <stop offset="0" stop-color="#0F172A"/>
      <stop offset="1" stop-color="#1E293B"/>
    </linearGradient>
  </defs>
  <rect width="1600" height="1200" rx="42" fill="url(#sky)"/>
  <rect y="860" width="1600" height="340" fill="url(#ground)"/>
  <circle cx="1270" cy="220" r="94" fill="#FCD34D" opacity="0.88"/>
  <rect x="140" y="540" width="920" height="360" rx="34" fill="#EFF6FF" stroke="#BFDBFE" stroke-width="6"/>
  <path d="M85 590L585 275L1115 590H85Z" fill="url(#roof)"/>
  <g fill="#020617" stroke="#64748B" stroke-width="4">
    <rect x="240" y="395" width="92" height="96" rx="10"/>
    <rect x="345" y="395" width="92" height="96" rx="10"/>
    <rect x="450" y="395" width="92" height="96" rx="10"/>
    <rect x="555" y="395" width="92" height="96" rx="10"/>
    <rect x="660" y="395" width="92" height="96" rx="10"/>
    <rect x="765" y="395" width="92" height="96" rx="10"/>
    <rect x="210" y="500" width="92" height="96" rx="10"/>
    <rect x="315" y="500" width="92" height="96" rx="10"/>
    <rect x="420" y="500" width="92" height="96" rx="10"/>
    <rect x="525" y="500" width="92" height="96" rx="10"/>
    <rect x="630" y="500" width="92" height="96" rx="10"/>
    <rect x="735" y="500" width="92" height="96" rx="10"/>
    <rect x="840" y="500" width="92" height="96" rx="10"/>
  </g>
  <rect x="1115" y="300" width="355" height="590" rx="32" fill="#111827"/>
  <text x="1160" y="390" fill="#FFFFFF" font-family="Arial, sans-serif" font-size="44" font-weight="700">Estate</text>
  <text x="1160" y="445" fill="#FFFFFF" font-family="Arial, sans-serif" font-size="44" font-weight="700">Powerhouse</text>
  <text x="1160" y="555" fill="#FBBF24" font-family="Arial, sans-serif" font-size="32" font-weight="700">26 Panels • 12.48kW</text>
  <text x="1160" y="610" fill="#CBD5E1" font-family="Arial, sans-serif" font-size="24">15kWh multi-stack array</text>
  <text x="1160" y="652" fill="#CBD5E1" font-family="Arial, sans-serif" font-size="24">Large detached home footprint</text>
  <rect x="1160" y="710" width="210" height="62" rx="18" fill="#1D4ED8" opacity="0.22"/>
  <text x="1188" y="750" fill="#DBEAFE" font-family="Arial, sans-serif" font-size="24" font-weight="700">Custom-led design</text>
  <rect x="1160" y="798" width="170" height="18" rx="9" fill="#334155"/>
  <rect x="1160" y="832" width="132" height="18" rx="9" fill="#334155"/>
</svg>